<svg width="265" height="117" viewBox="0 0 265 117" fill="none" xmlns="http://www.w3.org/2000/svg">
<rect y="17" width="25" height="100" fill="#D9D9D9"/>
<rect y="33" width="25" height="84" fill="#9D4EDD"/>
<rect y="50" width="25" height="67" fill="#FF8500"/>
<rect y="97" width="25" height="20" fill="#3F37C9"/>
<rect x="40" y="50" width="25" height="67" fill="#D9D9D9"/>
<rect x="80" y="26" width="25" height="91" fill="#D9D9D9"/>
<rect x="120" width="25" height="117" fill="#D9D9D9"/>
<rect x="160" y="63" width="25" height="54" fill="#D9D9D9"/>
<rect x="200" y="90" width="25" height="27" fill="#D9D9D9"/>
<rect x="240" y="17" width="25" height="100" fill="#D9D9D9"/>
<rect x="40" y="63" width="25" height="54" fill="#9D4EDD"/>
<rect x="80" y="54" width="25" height="63" fill="#9D4EDD"/>
<rect x="120" y="17" width="25" height="100" fill="#9D4EDD"/>
<rect x="160" y="83" width="25" height="34" fill="#9D4EDD"/>
<rect x="200" y="102" width="25" height="15" fill="#9D4EDD"/>
<rect x="240" y="31" width="25" height="86" fill="#9D4EDD"/>
<rect x="40" y="74" width="25" height="43" fill="#FF8500"/>
<rect x="80" y="67" width="25" height="50" fill="#FF8500"/>
<rect x="120" y="38" width="25" height="79" fill="#FF8500"/>
<rect x="160" y="90" width="25" height="27" fill="#FF8500"/>
<rect x="200" y="105" width="25" height="12" fill="#FF8500"/>
<rect x="240" y="48" width="25" height="69" fill="#FF8500"/>
<rect x="80" y="102" width="25" height="15" fill="#3F37C9"/>
<rect x="160" y="109" width="25" height="8" fill="#3F37C9"/>
<rect x="200" y="113" width="25" height="4" fill="#3F37C9"/>
<rect x="240" y="94" width="25" height="23" fill="#3F37C9"/>
</svg>
