<svg width="32" height="32" viewBox="0 0 32 32" fill="none" xmlns="http://www.w3.org/2000/svg">
<path d="M12.5 15.4275C13.0506 19.0913 12.0419 21.0944 9.19315 21.5157C6.02752 21.9838 4.72315 19.8632 4.17252 16.1994C3.4319 11.2694 5.17252 8.20316 7.6544 8.00566C9.91315 7.82629 11.9488 11.7644 12.5 15.4275Z" stroke="#011627" stroke-width="2.17" stroke-miterlimit="10"/>
<path d="M13.9781 25.5957C14.1737 27.6757 13.0493 29.6169 11.3531 29.9494C9.6406 30.2844 7.68372 28.9263 7.28497 26.8751C6.88622 24.8238 8.39435 24.7151 10.2425 24.3619C12.0906 24.0088 13.7418 23.0869 13.9781 25.5957Z" stroke="#C82625" stroke-width="2.17" stroke-miterlimit="10"/>
<path d="M19.5 9.42691C18.9494 13.0907 19.9581 15.0938 22.8062 15.515C25.9725 15.9832 27.2762 13.8625 27.8269 10.1988C28.5681 5.26816 26.8269 2.18503 24.3456 2.00503C22.0706 1.84003 20.0512 5.76316 19.5 9.42691Z" stroke="#011627" stroke-width="2.17" stroke-miterlimit="10"/>
<path d="M18.0219 19.5955C17.8263 21.6749 18.9506 23.6168 20.6469 23.9493C22.3594 24.2843 24.3162 22.9261 24.715 20.8749C25.1137 18.8236 23.6056 18.7149 21.7575 18.3611C19.9094 18.0074 18.2581 17.0861 18.0219 19.5955Z" stroke="#C82625" stroke-width="2.17" stroke-miterlimit="10"/>
</svg>
