<svg width="32" height="32" viewBox="0 0 32 32" fill="none" xmlns="http://www.w3.org/2000/svg">
<path d="M12 10.6667H28M21.6666 29.3334C22.1087 29.3334 22.5326 29.1578 22.8452 28.8453C23.1577 28.5327 23.3333 28.1088 23.3333 27.6667C23.3333 27.2247 23.1577 26.8008 22.8452 26.4882C22.5326 26.1757 22.1087 26.0001 21.6666 26.0001C21.2246 26.0001 20.8007 26.1757 20.4881 26.4882C20.1756 26.8008 20 27.2247 20 27.6667C20 28.1088 20.1756 28.5327 20.4881 28.8453C20.8007 29.1578 21.2246 29.3334 21.6666 29.3334ZM11 29.3334C11.442 29.3334 11.8659 29.1578 12.1785 28.8453C12.4911 28.5327 12.6666 28.1088 12.6666 27.6667C12.6666 27.2247 12.4911 26.8008 12.1785 26.4882C11.8659 26.1757 11.442 26.0001 11 26.0001C10.558 26.0001 10.134 26.1757 9.82147 26.4882C9.50891 26.8008 9.33331 27.2247 9.33331 27.6667C9.33331 28.1088 9.50891 28.5327 9.82147 28.8453C10.134 29.1578 10.558 29.3334 11 29.3334Z" stroke="#6C757D" stroke-width="2" stroke-miterlimit="10" stroke-linecap="round" stroke-linejoin="round"/>
<path d="M2.66669 2.66675H4.98669C6.42669 2.66675 7.56002 3.90675 7.44002 5.33342L6.33335 18.6134C6.29014 19.1279 6.35427 19.6457 6.52167 20.1341C6.68906 20.6226 6.95608 21.0709 7.30581 21.4507C7.65553 21.8305 8.08033 22.1335 8.55329 22.3405C9.02625 22.5476 9.53706 22.6541 10.0534 22.6534H24.2534C26.1734 22.6534 27.8534 21.0801 28 19.1734L28.72 9.17342C28.88 6.96008 27.2 5.16008 24.9734 5.16008H7.76002" stroke="#011627" stroke-width="2" stroke-miterlimit="10" stroke-linecap="round" stroke-linejoin="round"/>
</svg>
