<svg width="28" height="28" viewBox="0 0 28 28" fill="none" xmlns="http://www.w3.org/2000/svg">
<path d="M3.69824 8.67993L13.9999 14.6416L24.2316 8.7149" stroke="#011627" stroke-width="2.2" stroke-linecap="round" stroke-linejoin="round"/>
<path d="M14 25.2115V14.6299" stroke="#011627" stroke-width="2.2" stroke-linecap="round" stroke-linejoin="round"/>
<path d="M11.5857 2.89325L5.35572 6.35829C3.94405 7.13995 2.78906 9.09993 2.78906 10.7099V17.3016C2.78906 18.9116 3.94405 20.8716 5.35572 21.6533L11.5857 25.1183C12.9157 25.8533 15.0974 25.8533 16.4274 25.1183L22.6574 21.6533C24.069 20.8716 25.224 18.9116 25.224 17.3016V10.7099C25.224 9.09993 24.069 7.13995 22.6574 6.35829L16.4274 2.89325C15.0857 2.14659 12.9157 2.14659 11.5857 2.89325Z" stroke="#011627" stroke-width="2.2" stroke-linecap="round" stroke-linejoin="round"/>
<path d="M19.8331 15.4468V11.1768L8.76141 4.78345" stroke="#C82625" stroke-width="2.2" stroke-linecap="round" stroke-linejoin="round"/>
</svg>
