<svg width="32" height="32" viewBox="0 0 32 32" fill="none" xmlns="http://www.w3.org/2000/svg">
<path d="M28.1067 11.4401V20.5601C28.1067 22.0534 27.3067 23.4401 26.0133 24.2001L18.0933 28.7734C16.8 29.5201 15.2 29.5201 13.8933 28.7734L5.97334 24.2001C5.33571 23.8304 4.80659 23.2994 4.43914 22.6605C4.0717 22.0215 3.87886 21.2971 3.88001 20.5601V11.4401C3.88001 9.94675 4.68001 8.56008 5.97334 7.80008L13.8933 3.22675C15.1867 2.48008 16.7867 2.48008 18.0933 3.22675L26.0133 7.80008C27.3067 8.56008 28.1067 9.93341 28.1067 11.4401Z" stroke="#011627" stroke-width="2.17" stroke-linecap="round" stroke-linejoin="round"/>
<path d="M21.3333 22.2107C21.3333 19.8107 18.9467 17.864 16 17.864C13.0533 17.864 10.6667 19.8107 10.6667 22.2107M16.0027 14.6667C16.8266 14.6667 17.6168 14.3394 18.1994 13.7568C18.782 13.1742 19.1093 12.384 19.1093 11.56C19.1093 10.7361 18.782 9.9459 18.1994 9.36329C17.6168 8.78068 16.8266 8.45337 16.0027 8.45337C15.1787 8.45337 14.3885 8.78068 13.8059 9.36329C13.2233 9.9459 12.896 10.7361 12.896 11.56C12.896 12.384 13.2233 13.1742 13.8059 13.7568C14.3885 14.3394 15.1787 14.6667 16.0027 14.6667Z" stroke="#C82625" stroke-width="2" stroke-linecap="round" stroke-linejoin="round"/>
</svg>
