<svg width="32" height="32" viewBox="0 0 32 32" fill="none" xmlns="http://www.w3.org/2000/svg">
<path fill-rule="evenodd" clip-rule="evenodd" d="M15.9998 1.6665C12.502 1.6665 9.66647 4.50204 9.66647 7.99984C9.66647 11.4976 12.502 14.3332 15.9998 14.3332C19.4977 14.3332 22.3331 11.4976 22.3331 7.99984C22.3331 4.50204 19.4977 1.6665 15.9998 1.6665ZM11.6665 7.99984C11.6665 5.6066 13.6066 3.6665 15.9998 3.6665C18.393 3.6665 20.3331 5.6066 20.3331 7.99984C20.3331 10.3931 18.393 12.3332 15.9998 12.3332C13.6066 12.3332 11.6665 10.3931 11.6665 7.99984Z" fill="#011627"/>
<path d="M24 4.33325C23.4477 4.33325 23 4.78097 23 5.33325C23 5.88553 23.4477 6.33325 24 6.33325C25.8353 6.33325 27 7.54089 27 8.66658C27 9.79228 25.8353 10.9999 24 10.9999C23.4477 10.9999 23 11.4476 23 11.9999C23 12.5522 23.4477 12.9999 24 12.9999C26.5829 12.9999 29 11.2228 29 8.66658C29 6.11039 26.5829 4.33325 24 4.33325Z" fill="#C82625"/>
<path d="M9 5.33325C9 4.78097 8.55228 4.33325 8 4.33325C5.41704 4.33325 3 6.11039 3 8.66658C3 11.2228 5.41704 12.9999 8 12.9999C8.55228 12.9999 9 12.5522 9 11.9999C9 11.4476 8.55228 10.9999 8 10.9999C6.16468 10.9999 5 9.79228 5 8.66658C5 7.54089 6.16468 6.33325 8 6.33325C8.55228 6.33325 9 5.88553 9 5.33325Z" fill="#C82625"/>
<path fill-rule="evenodd" clip-rule="evenodd" d="M16 16.3333C13.6209 16.3333 11.4219 16.9743 9.78844 18.0633C8.16195 19.1477 7 20.7554 7 22.6666C7 24.5778 8.16195 26.1855 9.78844 27.2699C11.4219 28.3589 13.6209 28.9999 16 28.9999C18.3791 28.9999 20.578 28.3589 22.2116 27.2699C23.838 26.1855 25 24.5778 25 22.6666C25 20.7554 23.838 19.1477 22.2116 18.0633C20.578 16.9743 18.3791 16.3333 16 16.3333ZM9 22.6666C9 21.6322 9.62892 20.5734 10.8978 19.7274C12.1598 18.8861 13.9608 18.3333 16 18.3333C18.0392 18.3333 19.8403 18.8861 21.1021 19.7274C22.3711 20.5734 23 21.6322 23 22.6666C23 23.701 22.3711 24.7598 21.1021 25.6058C19.8403 26.4471 18.0392 26.9999 16 26.9999C13.9608 26.9999 12.1598 26.4471 10.8978 25.6058C9.62892 24.7598 9 23.701 9 22.6666Z" fill="#011627"/>
<path d="M25.6899 18.4525C25.8081 17.913 26.3415 17.5717 26.8809 17.6899C28.1633 17.9711 29.3191 18.4791 30.1771 19.1813C31.0344 19.8827 31.6667 20.847 31.6667 22.0001C31.6667 23.1531 31.0344 24.1174 30.1771 24.8189C29.3191 25.521 28.1633 26.029 26.8809 26.3102C26.3415 26.4285 25.8081 26.0871 25.6899 25.5477C25.5716 25.0082 25.9129 24.4749 26.4524 24.3566C27.5089 24.1249 28.3532 23.727 28.9105 23.271C29.4685 22.8145 29.6667 22.3685 29.6667 22.0001C29.6667 21.6317 29.4685 21.1857 28.9105 20.7291C28.3532 20.2731 27.5089 19.8753 26.4524 19.6435C25.9129 19.5253 25.5716 18.9919 25.6899 18.4525Z" fill="#C82625"/>
<path d="M5.11933 17.6899C5.65879 17.5717 6.19202 17.913 6.31031 18.4525C6.42862 18.9919 6.08719 19.5253 5.54773 19.6435C4.49125 19.8753 3.64693 20.2731 3.08969 20.7291C2.5317 21.1857 2.33353 21.6317 2.33353 22.0001C2.33353 22.3685 2.5317 22.8145 3.08969 23.271C3.64693 23.727 4.49125 24.1249 5.54773 24.3566C6.08719 24.4749 6.42862 25.0082 6.31031 25.5477C6.19202 26.0871 5.65879 26.4285 5.11933 26.3102C3.83681 26.029 2.68113 25.521 1.82311 24.8189C0.965857 24.1174 0.333527 23.1531 0.333527 22.0001C0.333527 20.847 0.965857 19.8827 1.82311 19.1813C2.68113 18.4791 3.83681 17.9711 5.11933 17.6899Z" fill="#C82625"/>
</svg>
