<svg width="605" height="85" viewBox="0 0 605 85" fill="none" xmlns="http://www.w3.org/2000/svg">
<path d="M273.9 84.2769H10.5346C4.63523 84.2769 0 79.6416 0 73.7423V10.5346C0 4.63523 4.63523 0 10.5346 0H273.9C279.799 0 284.434 4.63523 284.434 10.5346V73.7423C284.434 79.6416 279.799 84.2769 273.9 84.2769Z" fill="black"/>
<path d="M273.9 1.68554C278.746 1.68554 282.749 5.68869 282.749 10.5346V73.7423C282.749 78.5882 278.746 82.5913 273.9 82.5913H10.5346C5.68869 82.5913 1.68554 78.5882 1.68554 73.7423V10.5346C1.68554 5.68869 5.68869 1.68554 10.5346 1.68554H273.9ZM273.9 0H10.5346C4.63523 0 0 4.84592 0 10.5346V73.7423C0 79.6416 4.63523 84.2769 10.5346 84.2769H273.9C279.799 84.2769 284.434 79.6416 284.434 73.7423V10.5346C284.434 4.84592 279.799 0 273.9 0Z" fill="#A6A6A6"/>
<path d="M99.8685 21.4907C99.8685 23.1762 99.4471 24.6511 98.3937 25.7045C97.1295 26.9687 95.6547 27.6007 93.7584 27.6007C91.8622 27.6007 90.3874 26.9687 89.1232 25.7045C87.8591 24.4404 87.227 22.9655 87.227 21.0693C87.227 19.1731 87.8591 17.6982 89.1232 16.4341C90.3874 15.1699 91.8622 14.5378 93.7584 14.5378C94.6012 14.5378 95.444 14.7485 96.2867 15.1699C97.1295 15.5913 97.7616 16.0127 98.183 16.6448L97.1295 17.6982C96.2867 16.6448 95.2333 16.2234 93.7584 16.2234C92.4943 16.2234 91.2301 16.6448 90.3874 17.6982C89.3339 18.541 88.9125 19.8051 88.9125 21.28C88.9125 22.7548 89.3339 24.019 90.3874 24.8617C91.4408 25.7045 92.4943 26.3366 93.7584 26.3366C95.2333 26.3366 96.2867 25.9152 97.3402 24.8617C97.9723 24.2297 98.3937 23.3869 98.3937 22.3334H93.7584V20.6479H99.8685V21.4907ZM109.56 16.2234H103.872V20.2265H109.139V21.7014H103.872V25.7045H109.56V27.3901H102.186V14.7485H109.56V16.2234ZM116.513 27.3901H114.828V16.2234H111.246V14.7485H120.095V16.2234H116.513V27.3901ZM126.205 27.3901V14.7485H127.891V27.3901H126.205ZM135.054 27.3901H133.369V16.2234H129.787V14.7485H138.425V16.2234H134.843V27.3901H135.054ZM155.07 25.7045C153.806 26.9687 152.331 27.6007 150.435 27.6007C148.538 27.6007 147.064 26.9687 145.799 25.7045C144.535 24.4404 143.903 22.9655 143.903 21.0693C143.903 19.1731 144.535 17.6982 145.799 16.4341C147.064 15.1699 148.538 14.5378 150.435 14.5378C152.331 14.5378 153.806 15.1699 155.07 16.4341C156.334 17.6982 156.966 19.1731 156.966 21.0693C156.966 22.9655 156.334 24.4404 155.07 25.7045ZM147.064 24.6511C147.906 25.4938 149.17 26.1259 150.435 26.1259C151.699 26.1259 152.963 25.7045 153.806 24.6511C154.648 23.8083 155.281 22.5441 155.281 21.0693C155.281 19.5944 154.859 18.3303 153.806 17.4875C152.963 16.6448 151.699 16.0127 150.435 16.0127C149.17 16.0127 147.906 16.4341 147.064 17.4875C146.221 18.3303 145.589 19.5944 145.589 21.0693C145.589 22.5441 146.01 23.8083 147.064 24.6511ZM159.284 27.3901V14.7485H161.18L167.29 24.6511V14.7485H168.976V27.3901H167.29L160.759 17.0661V27.3901H159.284Z" fill="white" stroke="white" stroke-width="1.18519" stroke-miterlimit="10"/>
<path d="M143.481 45.9312C138.424 45.9312 134.421 49.7237 134.421 54.991C134.421 60.0476 138.424 64.0507 143.481 64.0507C148.538 64.0507 152.541 60.2583 152.541 54.991C152.541 49.513 148.538 45.9312 143.481 45.9312ZM143.481 60.2583C140.742 60.2583 138.424 57.9406 138.424 54.7803C138.424 51.6199 140.742 49.3023 143.481 49.3023C146.22 49.3023 148.538 51.4092 148.538 54.7803C148.538 57.9406 146.22 60.2583 143.481 60.2583ZM123.887 45.9312C118.83 45.9312 114.827 49.7237 114.827 54.991C114.827 60.0476 118.83 64.0507 123.887 64.0507C128.943 64.0507 132.946 60.2583 132.946 54.991C132.946 49.513 128.943 45.9312 123.887 45.9312ZM123.887 60.2583C121.148 60.2583 118.83 57.9406 118.83 54.7803C118.83 51.6199 121.148 49.3023 123.887 49.3023C126.626 49.3023 128.943 51.4092 128.943 54.7803C128.943 57.9406 126.626 60.2583 123.887 60.2583ZM100.5 48.6702V52.4626H109.56C109.349 54.5696 108.506 56.2551 107.453 57.3086C106.189 58.5727 104.082 60.0476 100.5 60.0476C94.8112 60.0476 90.5973 55.623 90.5973 49.9343C90.5973 44.2457 95.0219 39.8211 100.5 39.8211C103.45 39.8211 105.767 41.0853 107.453 42.5601L110.192 39.8211C107.874 37.7142 104.924 36.0287 100.711 36.0287C93.1256 36.0287 86.5942 42.3494 86.5942 49.9343C86.5942 57.5193 93.1256 63.84 100.711 63.84C104.924 63.84 107.874 62.5759 110.402 59.8369C112.931 57.3086 113.773 53.7268 113.773 50.9878C113.773 50.145 113.773 49.3023 113.563 48.6702H100.5ZM196.154 51.6199C195.311 49.513 193.204 45.9312 188.569 45.9312C183.934 45.9312 180.142 49.513 180.142 54.991C180.142 60.0476 183.934 64.0507 188.991 64.0507C192.994 64.0507 195.522 61.5224 196.365 60.0476L193.415 57.9406C192.362 59.4155 191.097 60.469 188.991 60.469C186.884 60.469 185.62 59.6262 184.566 57.73L196.576 52.6733L196.154 51.6199ZM183.934 54.5696C183.934 51.1985 186.673 49.3023 188.569 49.3023C190.044 49.3023 191.519 50.145 191.94 51.1985L183.934 54.5696ZM174.031 63.2079H178.035V36.8714H174.031V63.2079ZM167.711 47.8274C166.657 46.774 164.972 45.7205 162.865 45.7205C158.44 45.7205 154.226 49.7237 154.226 54.7803C154.226 59.8369 158.23 63.6293 162.865 63.6293C164.972 63.6293 166.657 62.5759 167.5 61.5224H167.711V62.7866C167.711 66.1576 165.814 68.0539 162.865 68.0539C160.547 68.0539 158.862 66.3683 158.44 64.8935L155.069 66.3683C156.123 68.6859 158.651 71.6356 163.075 71.6356C167.711 71.6356 171.503 68.8966 171.503 62.3652V46.3526H167.711V47.8274ZM163.075 60.2583C160.336 60.2583 158.019 57.9406 158.019 54.7803C158.019 51.6199 160.336 49.3023 163.075 49.3023C165.814 49.3023 167.921 51.6199 167.921 54.7803C167.921 57.9406 165.814 60.2583 163.075 60.2583ZM214.484 36.8714H205.003V63.2079H209.006V53.3054H214.484C218.909 53.3054 223.123 50.145 223.123 45.0884C223.123 40.0318 218.909 36.8714 214.484 36.8714ZM214.695 49.513H209.006V40.4532H214.695C217.645 40.4532 219.33 42.9815 219.33 44.8777C219.12 47.1953 217.434 49.513 214.695 49.513ZM238.925 45.7205C235.975 45.7205 233.025 46.9847 231.972 49.7237L235.554 51.1985C236.396 49.7237 237.66 49.3023 239.135 49.3023C241.242 49.3023 243.138 50.5664 243.349 52.6733V52.884C242.717 52.4627 241.032 51.8306 239.346 51.8306C235.554 51.8306 231.761 53.9375 231.761 57.73C231.761 61.3117 234.921 63.6293 238.293 63.6293C241.032 63.6293 242.296 62.3652 243.349 61.101H243.56V63.2079H247.352V53.0947C246.931 48.4595 243.349 45.7205 238.925 45.7205ZM238.503 60.2583C237.239 60.2583 235.343 59.6262 235.343 57.9406C235.343 55.8337 237.66 55.2017 239.557 55.2017C241.242 55.2017 242.085 55.623 243.138 56.0444C242.717 58.5727 240.61 60.2583 238.503 60.2583ZM260.626 46.3526L256.201 57.73H255.991L251.355 46.3526H247.142L254.094 62.3652L250.091 71.2143H254.094L264.84 46.3526H260.626ZM225.23 63.2079H229.233V36.8714H225.23V63.2079Z" fill="white"/>
<path d="M21.9121 15.802C21.28 16.434 21.0693 17.4875 21.0693 18.7517V65.3146C21.0693 66.5788 21.4907 67.6322 22.1228 68.2643L22.3334 68.475L48.4593 42.3492V41.9278L21.9121 15.802Z" fill="url(#paint0_linear_1_555)"/>
<path d="M56.8869 51.1984L48.2486 42.5601V41.928L56.8869 33.2896L57.0976 33.5003L67.4216 39.3997C70.3712 41.0852 70.3712 43.8242 67.4216 45.5098L56.8869 51.1984Z" fill="url(#paint1_linear_1_555)"/>
<path d="M57.098 50.9877L48.2489 42.1386L21.9124 68.4751C22.9658 69.5286 24.4407 69.5286 26.3369 68.6858L57.098 50.9877Z" fill="url(#paint2_linear_1_555)"/>
<path d="M57.098 33.2896L26.3369 15.8021C24.4407 14.7486 22.9658 14.9593 21.9124 16.0128L48.2489 42.1386L57.098 33.2896Z" fill="url(#paint3_linear_1_555)"/>
<path opacity="0.2" d="M56.8873 50.7768L26.3369 68.0535C24.6514 69.107 23.1765 68.8963 22.1231 68.0535L21.9124 68.2642L22.1231 68.4749C23.1765 69.3177 24.6514 69.5284 26.3369 68.4749L56.8873 50.7768Z" fill="black"/>
<path opacity="0.12" d="M21.9121 68.0537C21.28 67.4216 21.0693 66.3682 21.0693 65.104V65.3147C21.0693 66.5789 21.4907 67.6323 22.1228 68.2644V68.0537H21.9121ZM67.4216 44.8776L56.887 50.777L57.0977 50.9877L67.4216 45.0883C68.8964 44.2455 69.5285 43.192 69.5285 42.1386C69.5285 43.192 68.6857 44.0348 67.4216 44.8776Z" fill="black"/>
<path opacity="0.25" d="M26.3366 16.0127L67.4216 39.3995C68.6857 40.2423 69.5285 41.085 69.5285 42.1385C69.5285 41.085 68.8964 40.0316 67.4216 39.1888L26.3366 15.802C23.3869 14.1164 21.0693 15.3806 21.0693 18.7517V18.9624C21.0693 15.802 23.3869 14.3271 26.3366 16.0127Z" fill="white"/>
<path d="M603.112 74.3474C603.112 75.4084 602.903 76.459 602.497 77.4391C602.09 78.4192 601.495 79.3096 600.744 80.0595C599.993 80.8093 599.102 81.4039 598.121 81.8091C597.14 82.2144 596.089 82.4224 595.028 82.4213H330.461C328.317 82.4235 326.259 81.5742 324.741 80.0601C323.223 78.546 322.369 76.4912 322.366 74.3474V9.96082C322.369 7.8161 323.223 5.76014 324.741 4.24438C326.258 2.72862 328.316 1.87696 330.461 1.8764H595.026C596.088 1.8764 597.139 2.08553 598.12 2.49183C599.101 2.89814 599.992 3.49367 600.743 4.2444C601.494 4.99514 602.089 5.88637 602.495 6.86721C602.902 7.84804 603.111 8.89926 603.11 9.96082L603.112 74.3474Z" fill="white"/>
<path d="M595.028 84.2993H330.461C327.82 84.2988 325.286 83.2506 323.417 81.3848C321.547 79.519 320.495 76.988 320.49 74.3472V9.96271C320.493 7.32054 321.545 4.7878 323.415 2.92009C325.284 1.05238 327.818 0.00223009 330.461 0L595.026 0C597.668 0.00334285 600.202 1.05385 602.071 2.92132C603.94 4.78878 604.992 7.32088 604.997 9.96271V74.3472C605.002 79.8366 600.521 84.2993 595.028 84.2993Z" fill="#A6A6A6"/>
<path d="M603.112 74.3474C603.112 75.4084 602.903 76.459 602.497 77.4391C602.09 78.4192 601.495 79.3096 600.744 80.0595C599.993 80.8093 599.102 81.4039 598.121 81.8091C597.14 82.2144 596.089 82.4224 595.028 82.4213H330.461C328.317 82.4235 326.259 81.5742 324.741 80.0601C323.223 78.546 322.369 76.4912 322.366 74.3474V9.96082C322.369 7.8161 323.223 5.76014 324.741 4.24438C326.258 2.72862 328.316 1.87696 330.461 1.8764H595.026C596.088 1.8764 597.139 2.08553 598.12 2.49183C599.101 2.89814 599.992 3.49367 600.743 4.2444C601.494 4.99514 602.089 5.88637 602.495 6.86721C602.902 7.84804 603.111 8.89926 603.11 9.96082L603.112 74.3474Z" fill="black"/>
<path d="M384.018 41.7061C383.956 34.9118 389.582 31.6063 389.84 31.4524C386.653 26.8084 381.715 26.1738 379.98 26.1232C375.832 25.6869 371.809 28.6044 369.696 28.6044C367.541 28.6044 364.287 26.1654 360.781 26.2371C356.268 26.3066 352.047 28.9185 349.731 32.9745C344.953 41.2444 348.517 53.3974 353.095 60.082C355.385 63.358 358.06 67.0112 361.563 66.8826C364.989 66.7435 366.269 64.7008 370.404 64.7008C374.501 64.7008 375.703 66.8827 379.275 66.8004C382.953 66.7435 385.268 63.5119 387.478 60.2085C390.124 56.4583 391.187 52.7607 391.229 52.571C391.145 52.5415 384.089 49.8474 384.018 41.7061ZM377.27 21.7258C379.113 19.4217 380.374 16.287 380.024 13.106C377.356 13.224 374.021 14.9505 372.1 17.204C370.4 19.1898 368.882 22.4447 369.274 25.5056C372.27 25.729 375.347 23.9941 377.27 21.7258Z" fill="white"/>
<path d="M595.028 0H453.318L508.824 84.2993H595.028C597.67 84.2971 600.204 83.2475 602.073 81.3808C603.942 79.514 604.995 76.9823 605 74.3409V9.96271C604.995 7.32071 603.943 4.78829 602.074 2.92071C600.205 1.05312 597.671 0.00278668 595.028 0Z" fill="url(#paint4_linear_1_555)"/>
<path d="M433.649 66.4126H428.86L426.237 58.1722H417.119L414.62 66.4126H409.958L418.994 38.3585H424.573L433.649 66.4126ZM425.446 54.715L423.074 47.3894C422.823 46.6411 422.351 44.8787 421.659 42.1045H421.575C421.296 43.2977 420.851 45.06 420.242 47.3894L417.91 54.715H425.446ZM456.839 56.0494C456.839 59.4897 455.905 62.2091 454.035 64.2055C452.361 65.9826 450.279 66.8701 447.798 66.8701C445.117 66.8701 443.19 65.9151 442.02 64.001V74.6151H437.524V52.8325C437.524 50.6717 437.467 48.4561 437.358 46.1836H441.311L441.562 49.39H441.647C443.146 46.9742 445.421 45.7662 448.474 45.7662C450.861 45.7662 452.854 46.7085 454.448 48.5953C456.04 50.4862 456.839 52.9695 456.839 56.0494ZM452.259 56.2138C452.259 54.2449 451.817 52.6216 450.927 51.3421C449.955 50.0119 448.649 49.3457 447.013 49.3457C445.904 49.3457 444.896 49.7167 443.996 50.4482C443.093 51.1861 442.503 52.1494 442.227 53.3426C442.103 53.7888 442.033 54.2481 442.018 54.7107V58.0858C442.018 59.5551 442.469 60.7967 443.372 61.8128C444.274 62.8247 445.446 63.3327 446.889 63.3327C448.582 63.3327 449.9 62.6771 450.842 61.3764C451.787 60.0715 452.259 58.3514 452.259 56.2138ZM480.112 56.0494C480.112 59.4897 479.178 62.2091 477.308 64.2055C475.631 65.9826 473.552 66.8701 471.068 66.8701C468.388 66.8701 466.461 65.9151 465.291 64.001V74.6151H460.795V52.8325C460.795 50.6717 460.738 48.4561 460.629 46.1836H464.582L464.833 49.39H464.917C466.415 46.9742 468.69 45.7662 471.745 45.7662C474.13 45.7662 476.123 46.7085 477.721 48.5953C479.311 50.4862 480.112 52.9695 480.112 56.0494ZM475.53 56.2138C475.53 54.2449 475.085 52.6216 474.195 51.3421C473.223 50.0119 471.922 49.3457 470.286 49.3457C469.177 49.3457 468.169 49.7167 467.264 50.4482C466.362 51.1861 465.774 52.1494 465.497 53.3426C465.36 53.8991 465.286 54.3524 465.286 54.7107V58.0858C465.286 59.5551 465.74 60.7967 466.638 61.8128C467.541 62.8226 468.713 63.3327 470.159 63.3327C471.855 63.3327 473.173 62.6771 474.113 61.3764C475.058 60.0715 475.53 58.3514 475.53 56.2138ZM506.133 58.5432C506.133 60.9316 505.298 62.8732 503.638 64.372C501.812 66.0079 499.263 66.8279 495.994 66.8279C492.975 66.8279 490.554 66.2461 488.728 65.0803L489.768 61.3343C491.739 62.5021 493.905 63.084 496.262 63.084C497.957 63.084 499.275 62.7003 500.216 61.9393C501.158 61.1762 501.635 60.1559 501.635 58.8826C501.635 57.7421 501.241 56.7872 500.467 56.0093C499.689 55.2335 498.402 54.5105 496.595 53.8464C491.682 52.0145 489.224 49.3352 489.224 45.8105C489.224 43.5085 490.092 41.6239 491.826 40.1503C493.559 38.6789 495.857 37.9432 498.717 37.9432C501.27 37.9432 503.398 38.388 505.087 39.2755L503.959 42.9393C502.369 42.0792 500.574 41.6492 498.567 41.6492C496.981 41.6492 495.737 42.0392 494.847 42.8149C494.099 43.5085 493.719 44.3538 493.719 45.3573C493.719 46.464 494.151 47.3831 495.012 48.1041C495.758 48.7681 497.12 49.4912 499.09 50.2669C501.506 51.2409 503.282 52.375 504.418 53.6778C505.563 54.9806 506.133 56.6059 506.133 58.5432ZM521.034 49.5565H516.079V59.378C516.079 61.876 516.952 63.1219 518.702 63.1219C519.505 63.1219 520.172 63.0545 520.699 62.9132L520.823 66.3262C519.938 66.6571 518.772 66.8237 517.327 66.8237C515.552 66.8237 514.164 66.2819 513.163 65.1984C512.165 64.1148 511.663 62.2998 511.663 59.7448V49.5481H508.711V46.1752H511.663V42.4713L516.079 41.139V46.1752H521.034V49.5565ZM543.348 56.1316C543.348 59.241 542.458 61.7938 540.682 63.7902C538.825 65.8455 536.353 66.8701 533.273 66.8701C530.299 66.8701 527.936 65.8856 526.173 63.9188C524.41 61.9477 523.529 59.4644 523.529 56.4689C523.529 53.3342 524.44 50.7666 526.255 48.7702C528.075 46.7718 530.525 45.7726 533.606 45.7726C536.575 45.7726 538.96 46.7591 540.765 48.7281C542.489 50.638 543.348 53.1044 543.348 56.1316ZM538.688 56.2349C538.688 54.3819 538.287 52.7924 537.484 51.4622C536.541 49.8559 535.191 49.0527 533.443 49.0527C531.643 49.0527 530.262 49.8559 529.321 51.4622C528.516 52.7924 528.115 54.4093 528.115 56.3192C528.115 58.1743 528.516 59.768 529.321 61.094C530.293 62.7003 531.649 63.5035 533.405 63.5035C535.124 63.5035 536.471 62.6834 537.446 61.0539C538.272 59.6921 538.688 58.0921 538.688 56.2349ZM557.967 50.1362C557.499 50.0519 557.025 50.0102 556.55 50.0119C554.968 50.0119 553.745 50.6063 552.885 51.8037C552.138 52.8578 551.763 54.1901 551.763 55.7985V66.4126H547.268V52.5542C547.272 50.4307 547.228 48.3073 547.137 46.1857H551.053L551.217 50.0561H551.341C551.818 48.726 552.564 47.6529 553.589 46.8498C554.527 46.148 555.667 45.7679 556.839 45.7662C557.254 45.7662 557.629 45.7957 557.963 45.8484L557.967 50.1362ZM578.072 55.3411C578.084 56.0243 578.029 56.707 577.908 57.3795H564.421C564.472 59.378 565.125 60.9084 566.378 61.9625C567.515 62.9027 568.984 63.3749 570.789 63.3749C572.786 63.3749 574.608 63.0587 576.246 62.4199L576.951 65.5378C575.036 66.3725 572.776 66.7878 570.167 66.7878C567.03 66.7878 564.567 65.8645 562.774 64.0221C560.986 62.1775 560.09 59.6984 560.09 56.5932C560.09 53.545 560.923 51.0048 562.591 48.9789C564.337 46.816 566.696 45.7346 569.665 45.7346C572.582 45.7346 574.789 46.816 576.289 48.9789C577.476 50.6928 578.072 52.8177 578.072 55.3411ZM573.786 54.1753C573.817 52.8409 573.522 51.692 572.913 50.7202C572.135 49.468 570.937 48.844 569.332 48.844C567.862 48.844 566.665 49.4532 565.754 50.6759C565.005 51.6477 564.56 52.8156 564.423 54.1711L573.786 54.1753Z" fill="white"/>
<path d="M415.823 28.4398C414.572 28.4398 413.491 28.3787 412.59 28.2754V14.7121C413.849 14.5176 415.122 14.4218 416.396 14.4254C421.552 14.4254 423.926 16.9614 423.926 21.0953C423.926 25.8638 421.122 28.4398 415.823 28.4398ZM416.578 16.1646C415.882 16.1646 415.289 16.2067 414.798 16.3079V26.6184C415.064 26.6606 415.574 26.6796 416.291 26.6796C419.669 26.6796 421.592 24.757 421.592 21.1565C421.592 17.9459 419.852 16.1646 416.578 16.1646ZM431.325 28.5431C428.42 28.5431 426.537 26.3739 426.537 23.4289C426.537 20.3596 428.46 18.1714 431.49 18.1714C434.353 18.1714 436.278 20.2373 436.278 23.2666C436.278 26.3739 434.294 28.5431 431.325 28.5431ZM431.41 19.7862C429.813 19.7862 428.791 21.2787 428.791 23.3657C428.791 25.4126 429.834 26.9051 431.389 26.9051C432.943 26.9051 433.986 25.3093 433.986 23.3235C433.986 21.2998 432.964 19.7862 431.41 19.7862ZM452.848 18.3759L449.738 28.3175H447.711L446.423 24.0002C446.103 22.9442 445.836 21.8726 445.624 20.7897H445.582C445.419 21.8732 445.111 22.9588 444.785 24.0002L443.414 28.3175H441.367L438.44 18.3759H440.711L441.837 23.1022C442.102 24.2279 442.326 25.2904 442.511 26.2938H442.554C442.716 25.4569 442.982 24.4113 443.372 23.1233L444.785 18.378H446.585L447.937 23.0221C448.264 24.1478 448.529 25.2524 448.736 26.2959H448.795C448.939 25.2735 449.164 24.1878 449.47 23.0221L450.678 18.378L452.848 18.3759ZM464.298 28.3175H462.088V22.6089C462.088 20.8508 461.413 19.9696 460.083 19.9696C458.773 19.9696 457.873 21.0953 457.873 22.4044V28.3175H455.663V21.2176C455.663 20.3385 455.642 19.3962 455.581 18.3738H457.525L457.628 19.9085H457.689C458.284 18.846 459.49 18.1714 460.842 18.1714C462.929 18.1714 464.3 19.7672 464.3 22.3644L464.298 28.3175ZM470.392 28.3175H468.18V13.8141H470.392V28.3175ZM478.449 28.5431C475.545 28.5431 473.66 26.3739 473.66 23.4289C473.66 20.3596 475.583 18.1714 478.611 18.1714C481.477 18.1714 483.4 20.2373 483.4 23.2666C483.402 26.3739 481.416 28.5431 478.449 28.5431ZM478.531 19.7862C476.935 19.7862 475.912 21.2787 475.912 23.3657C475.912 25.4126 476.958 26.9051 478.508 26.9051C480.064 26.9051 481.106 25.3093 481.106 23.3235C481.108 21.2998 480.087 19.7862 478.531 19.7862ZM492.113 28.3175L491.952 27.1729H491.893C491.219 28.0941 490.234 28.5431 488.986 28.5431C487.204 28.5431 485.939 27.2951 485.939 25.6171C485.939 23.1633 488.066 21.8943 491.75 21.8943V21.7109C491.75 20.4018 491.056 19.7462 489.686 19.7462C488.705 19.7462 487.845 19.9928 487.088 20.484L486.639 19.0315C487.558 18.4581 488.705 18.1714 490.052 18.1714C492.65 18.1714 493.962 19.5417 493.962 22.2843V25.946C493.962 26.9494 494.006 27.7273 494.105 28.3197L492.113 28.3175ZM491.809 23.3657C489.355 23.3657 488.123 23.9602 488.123 25.3705C488.123 26.414 488.758 26.9241 489.639 26.9241C490.763 26.9241 491.809 26.0661 491.809 24.9004V23.3657ZM504.693 28.3175L504.589 26.7217H504.528C503.893 27.9276 502.827 28.5431 501.336 28.5431C498.938 28.5431 497.163 26.435 497.163 23.469C497.163 20.3596 499.004 18.1693 501.517 18.1693C502.848 18.1693 503.79 18.6183 504.322 19.5206H504.366V13.8141H506.578V25.6382C506.578 26.5995 506.601 27.4996 506.66 28.3175H504.693ZM504.366 22.4677C504.366 21.0763 503.444 19.8895 502.038 19.8895C500.399 19.8895 499.398 21.342 499.398 23.3868C499.398 25.3916 500.437 26.7639 501.994 26.7639C503.383 26.7639 504.366 25.556 504.366 24.1246V22.4677ZM520.602 28.5431C517.699 28.5431 515.816 26.3739 515.816 23.4289C515.816 20.3596 517.739 18.1714 520.767 18.1714C523.632 18.1714 525.555 20.2373 525.555 23.2666C525.557 26.3739 523.573 28.5431 520.602 28.5431ZM520.684 19.7862C519.09 19.7862 518.068 21.2787 518.068 23.3657C518.068 25.4126 519.111 26.9051 520.663 26.9051C522.219 26.9051 523.261 25.3093 523.261 23.3235C523.265 21.2998 522.243 19.7862 520.684 19.7862ZM537.44 28.3175H535.228V22.6089C535.228 20.8508 534.553 19.9696 533.222 19.9696C531.913 19.9696 531.015 21.0953 531.015 22.4044V28.3175H528.803V21.2176C528.803 20.3385 528.782 19.3962 528.72 18.3738H530.665L530.768 19.9085H530.829C531.422 18.846 532.63 18.1693 533.979 18.1693C536.067 18.1693 537.44 19.7651 537.44 22.3623V28.3175ZM552.307 20.0329H549.876V24.8603C549.876 26.0893 550.302 26.7028 551.162 26.7028C551.553 26.7028 551.879 26.6606 552.143 26.5995L552.204 28.2775C551.776 28.4419 551.202 28.5241 550.49 28.5241C548.748 28.5241 547.706 27.5629 547.706 25.0458V20.0329H546.256V18.3759H547.706V16.5546L549.876 15.8989V18.3738H552.307V20.0329ZM564.006 28.3175H561.798V22.6511C561.798 20.8719 561.126 19.9717 559.793 19.9717C558.648 19.9717 557.581 20.7496 557.581 22.3243V28.3175H555.373V13.8141H557.581V19.7862H557.625C558.321 18.7027 559.329 18.1693 560.615 18.1693C562.72 18.1693 564.006 19.8052 564.006 22.4044V28.3175ZM575.991 23.878H569.36C569.402 25.7605 570.648 26.8229 572.493 26.8229C573.474 26.8229 574.376 26.6585 575.173 26.3528L575.517 27.8875C574.577 28.2965 573.47 28.5009 572.181 28.5009C569.071 28.5009 567.23 26.5362 567.23 23.4901C567.23 20.4418 569.115 18.1504 571.932 18.1504C574.473 18.1504 576.067 20.0329 576.067 22.8766C576.082 23.2122 576.056 23.5483 575.991 23.878ZM573.965 22.3032C573.965 20.7686 573.191 19.685 571.778 19.685C570.509 19.685 569.505 20.7896 569.362 22.3032H573.965Z" fill="white"/>
<defs>
<linearGradient id="paint0_linear_1_555" x1="45.931" y1="18.3513" x2="10.5705" y2="53.7097" gradientUnits="userSpaceOnUse">
<stop stop-color="#00A0FF"/>
<stop offset="0.007" stop-color="#00A1FF"/>
<stop offset="0.26" stop-color="#00BEFF"/>
<stop offset="0.512" stop-color="#00D2FF"/>
<stop offset="0.76" stop-color="#00DFFF"/>
<stop offset="1" stop-color="#00E3FF"/>
</linearGradient>
<linearGradient id="paint1_linear_1_555" x1="71.2856" y1="42.1408" x2="20.3045" y2="42.1408" gradientUnits="userSpaceOnUse">
<stop stop-color="#FFE000"/>
<stop offset="0.409" stop-color="#FFBD00"/>
<stop offset="0.775" stop-color="#FFA500"/>
<stop offset="1" stop-color="#FF9C00"/>
</linearGradient>
<linearGradient id="paint2_linear_1_555" x1="52.3089" y1="46.9761" x2="4.35962" y2="94.9254" gradientUnits="userSpaceOnUse">
<stop stop-color="#FF3A44"/>
<stop offset="1" stop-color="#C31162"/>
</linearGradient>
<linearGradient id="paint3_linear_1_555" x1="15.3746" y1="0.371007" x2="36.7872" y2="21.7837" gradientUnits="userSpaceOnUse">
<stop stop-color="#32A071"/>
<stop offset="0.069" stop-color="#2DA771"/>
<stop offset="0.476" stop-color="#15CF74"/>
<stop offset="0.801" stop-color="#06E775"/>
<stop offset="1" stop-color="#00F076"/>
</linearGradient>
<linearGradient id="paint4_linear_1_555" x1="529.157" y1="84.5232" x2="529.157" y2="-219.501" gradientUnits="userSpaceOnUse">
<stop stop-color="#1A1A1A" stop-opacity="0.1"/>
<stop offset="0.123" stop-color="#212121" stop-opacity="0.151"/>
<stop offset="0.308" stop-color="#353535" stop-opacity="0.227"/>
<stop offset="0.532" stop-color="#575757" stop-opacity="0.318"/>
<stop offset="0.783" stop-color="#858585" stop-opacity="0.421"/>
<stop offset="1" stop-color="#B3B3B3" stop-opacity="0.51"/>
</linearGradient>
</defs>
</svg>
