<svg width="29" height="29" viewBox="0 0 29 29" fill="none" xmlns="http://www.w3.org/2000/svg">
<path d="M13.0178 13.0177H7.08913V7.08907H13.0178V13.0177ZM21.9108 7.08907H18.9464V10.0534H21.9108V7.08907ZM15.9821 21.9107H21.9108V15.9821H15.9821V21.9107ZM7.08913 21.9107H10.0535V18.9464H7.08913V21.9107Z" stroke="white" stroke-width="2.27365" stroke-linecap="round" stroke-linejoin="round"/>
<path d="M8.57136 1.16045H2.64271C2.24961 1.16045 1.87262 1.31661 1.59466 1.59457C1.3167 1.87253 1.16054 2.24952 1.16054 2.64261V8.57127" stroke="white" stroke-width="2.27365" stroke-linecap="round" stroke-linejoin="round"/>
<path d="M27.8394 8.57127V2.64261C27.8394 2.24952 27.6833 1.87253 27.4053 1.59457C27.1274 1.31661 26.7504 1.16045 26.3573 1.16045H20.4286" stroke="white" stroke-width="2.27365" stroke-linecap="round" stroke-linejoin="round"/>
<path d="M1.16054 20.4285V26.3572C1.16054 26.7503 1.3167 27.1273 1.59466 27.4052C1.87262 27.6832 2.24961 27.8393 2.64271 27.8393H8.57136" stroke="white" stroke-width="2.27365" stroke-linecap="round" stroke-linejoin="round"/>
<path d="M20.4286 27.8393H26.3573C26.7504 27.8393 27.1274 27.6832 27.4053 27.4052C27.6833 27.1273 27.8394 26.7503 27.8394 26.3572V20.4285" stroke="white" stroke-width="2.27365" stroke-linecap="round" stroke-linejoin="round"/>
</svg>
