<svg width="284" height="85" viewBox="0 0 284 85" fill="none" xmlns="http://www.w3.org/2000/svg">
<path d="M273.481 84.1481H10.5185C4.62815 84.1481 0 79.52 0 73.6296V10.5185C0 4.62815 4.62815 0 10.5185 0H273.481C279.372 0 284 4.62815 284 10.5185V73.6296C284 79.52 279.372 84.1481 273.481 84.1481Z" fill="black"/>
<path d="M273.481 1.68296C278.32 1.68296 282.317 5.68 282.317 10.5185V73.6296C282.317 78.4681 278.32 82.4652 273.481 82.4652H10.5185C5.68 82.4652 1.68296 78.4681 1.68296 73.6296V10.5185C1.68296 5.68 5.68 1.68296 10.5185 1.68296H273.481ZM273.481 0H10.5185C4.62815 0 0 4.83852 0 10.5185V73.6296C0 79.52 4.62815 84.1481 10.5185 84.1481H273.481C279.372 84.1481 284 79.52 284 73.6296V10.5185C284 4.83852 279.372 0 273.481 0Z" fill="#A6A6A6"/>
<path d="M99.716 21.4578C99.716 23.1407 99.2952 24.6133 98.2434 25.6652C96.9812 26.9274 95.5086 27.5585 93.6152 27.5585C91.7219 27.5585 90.2493 26.9274 88.9871 25.6652C87.7249 24.403 87.0938 22.9304 87.0938 21.037C87.0938 19.1437 87.7249 17.6711 88.9871 16.4089C90.2493 15.1467 91.7219 14.5156 93.6152 14.5156C94.4567 14.5156 95.2982 14.7259 96.1397 15.1467C96.9812 15.5674 97.6123 15.9882 98.033 16.6193L96.9811 17.6711C96.1397 16.6193 95.0878 16.1985 93.6152 16.1985C92.353 16.1985 91.0908 16.6193 90.2493 17.6711C89.1975 18.5126 88.7767 19.7748 88.7767 21.2474C88.7767 22.72 89.1975 23.9822 90.2493 24.8237C91.3012 25.6652 92.353 26.2963 93.6152 26.2963C95.0878 26.2963 96.1397 25.8756 97.1915 24.8237C97.8226 24.1926 98.2434 23.3511 98.2434 22.2993H93.6152V20.6163H99.716V21.4578ZM109.393 16.1985H103.713V20.1956H108.972V21.6682H103.713V25.6652H109.393V27.3482H102.03V14.7259H109.393V16.1985ZM116.335 27.3482H114.652V16.1985H111.076V14.7259H119.912V16.1985H116.335V27.3482ZM126.012 27.3482V14.7259H127.695V27.3482H126.012ZM134.848 27.3482H133.165V16.1985H129.589V14.7259H138.214V16.1985H134.637V27.3482H134.848ZM154.833 25.6652C153.571 26.9274 152.098 27.5585 150.205 27.5585C148.312 27.5585 146.839 26.9274 145.577 25.6652C144.314 24.403 143.683 22.9304 143.683 21.037C143.683 19.1437 144.314 17.6711 145.577 16.4089C146.839 15.1467 148.312 14.5156 150.205 14.5156C152.098 14.5156 153.571 15.1467 154.833 16.4089C156.095 17.6711 156.726 19.1437 156.726 21.037C156.726 22.9304 156.095 24.403 154.833 25.6652ZM146.839 24.6133C147.68 25.4548 148.943 26.0859 150.205 26.0859C151.467 26.0859 152.729 25.6652 153.571 24.6133C154.412 23.7719 155.043 22.5096 155.043 21.037C155.043 19.5645 154.623 18.3022 153.571 17.4607C152.729 16.6193 151.467 15.9882 150.205 15.9882C148.943 15.9882 147.68 16.4089 146.839 17.4607C145.997 18.3022 145.366 19.5645 145.366 21.037C145.366 22.5096 145.787 23.7719 146.839 24.6133ZM159.04 27.3482V14.7259H160.934L167.034 24.6133V14.7259H168.717V27.3482H167.034L160.513 17.04V27.3482H159.04Z" fill="white" stroke="white" stroke-width="1.18519" stroke-miterlimit="10"/>
<path d="M143.262 45.8608C138.213 45.8608 134.216 49.6475 134.216 54.9067C134.216 59.9556 138.213 63.9526 143.262 63.9526C148.311 63.9526 152.308 60.166 152.308 54.9067C152.308 49.4371 148.311 45.8608 143.262 45.8608ZM143.262 60.166C140.527 60.166 138.213 57.8519 138.213 54.6963C138.213 51.5408 140.527 49.2267 143.262 49.2267C145.997 49.2267 148.311 51.3304 148.311 54.6963C148.311 57.8519 145.997 60.166 143.262 60.166ZM123.697 45.8608C118.649 45.8608 114.652 49.6475 114.652 54.9067C114.652 59.9556 118.649 63.9526 123.697 63.9526C128.746 63.9526 132.743 60.166 132.743 54.9067C132.743 49.4371 128.746 45.8608 123.697 45.8608ZM123.697 60.166C120.963 60.166 118.649 57.8519 118.649 54.6963C118.649 51.5408 120.963 49.2267 123.697 49.2267C126.432 49.2267 128.746 51.3304 128.746 54.6963C128.746 57.8519 126.432 60.166 123.697 60.166ZM100.346 48.5956V52.3823H109.392C109.182 54.486 108.34 56.1689 107.289 57.2208C106.026 58.483 103.923 59.9556 100.346 59.9556C94.6664 59.9556 90.459 55.5378 90.459 49.8578C90.459 44.1778 94.8767 39.7601 100.346 39.7601C103.292 39.7601 105.606 41.0223 107.289 42.4949L110.023 39.7601C107.709 37.6563 104.764 35.9734 100.557 35.9734C92.9834 35.9734 86.4619 42.2845 86.4619 49.8578C86.4619 57.4312 92.9834 63.7423 100.557 63.7423C104.764 63.7423 107.709 62.4801 110.234 59.7452C112.758 57.2208 113.6 53.6445 113.6 50.9097C113.6 50.0682 113.6 49.2267 113.389 48.5956H100.346ZM195.855 51.5408C195.013 49.4371 192.909 45.8608 188.281 45.8608C183.653 45.8608 179.866 49.4371 179.866 54.9067C179.866 59.9556 183.653 63.9526 188.702 63.9526C192.699 63.9526 195.223 61.4282 196.065 59.9556L193.12 57.8519C192.068 59.3245 190.806 60.3764 188.702 60.3764C186.598 60.3764 185.336 59.5349 184.284 57.6415L196.275 52.5926L195.855 51.5408ZM183.653 54.486C183.653 51.1201 186.388 49.2267 188.281 49.2267C189.754 49.2267 191.226 50.0682 191.647 51.1201L183.653 54.486ZM173.766 63.1112H177.763V36.8149H173.766V63.1112ZM167.455 47.7541C166.403 46.7023 164.72 45.6504 162.616 45.6504C158.198 45.6504 153.991 49.6475 153.991 54.6963C153.991 59.7452 157.988 63.5319 162.616 63.5319C164.72 63.5319 166.403 62.4801 167.244 61.4282H167.455V62.6904C167.455 66.0563 165.561 67.9497 162.616 67.9497C160.302 67.9497 158.619 66.2667 158.198 64.7941L154.832 66.2667C155.884 68.5808 158.409 71.526 162.826 71.526C167.455 71.526 171.241 68.7912 171.241 62.2697V46.2815H167.455V47.7541ZM162.826 60.166C160.092 60.166 157.777 57.8519 157.777 54.6963C157.777 51.5408 160.092 49.2267 162.826 49.2267C165.561 49.2267 167.665 51.5408 167.665 54.6963C167.665 57.8519 165.561 60.166 162.826 60.166ZM214.157 36.8149H204.69V63.1112H208.687V53.2238H214.157C218.575 53.2238 222.782 50.0682 222.782 45.0193C222.782 39.9704 218.575 36.8149 214.157 36.8149ZM214.367 49.4371H208.687V40.3912H214.367C217.312 40.3912 218.995 42.9156 218.995 44.8089C218.785 47.123 217.102 49.4371 214.367 49.4371ZM238.56 45.6504C235.615 45.6504 232.669 46.9126 231.617 49.6475L235.194 51.1201C236.035 49.6475 237.297 49.2267 238.77 49.2267C240.874 49.2267 242.767 50.4889 242.977 52.5926V52.803C242.346 52.3823 240.663 51.7512 238.98 51.7512C235.194 51.7512 231.407 53.8549 231.407 57.6415C231.407 61.2178 234.563 63.5319 237.929 63.5319C240.663 63.5319 241.926 62.2697 242.977 61.0075H243.188V63.1112H246.975V53.0134C246.554 48.3852 242.977 45.6504 238.56 45.6504ZM238.139 60.166C236.877 60.166 234.983 59.5349 234.983 57.8519C234.983 55.7482 237.297 55.1171 239.191 55.1171C240.874 55.1171 241.715 55.5378 242.767 55.9586C242.346 58.483 240.243 60.166 238.139 60.166ZM260.228 46.2815L255.81 57.6415H255.6L250.972 46.2815H246.764L253.706 62.2697L249.709 71.1052H253.706L264.435 46.2815H260.228ZM224.886 63.1112H228.883V36.8149H224.886V63.1112Z" fill="white"/>
<path d="M21.8786 15.7778C21.2475 16.4089 21.0371 17.4608 21.0371 18.723V65.2148C21.0371 66.4771 21.4579 67.5289 22.089 68.16L22.2993 68.3704L48.3853 42.2845V41.8637L21.8786 15.7778Z" fill="url(#paint0_linear_1_132)"/>
<path d="M56.8001 51.12L48.1749 42.4948V41.8637L56.8001 33.2385L57.0104 33.4489L67.3186 39.3393C70.2638 41.0222 70.2638 43.757 67.3186 45.44L56.8001 51.12Z" fill="url(#paint1_linear_1_132)"/>
<path d="M57.0108 50.9097L48.1752 42.0741L21.8789 68.3704C22.9308 69.4222 24.4034 69.4222 26.2967 68.5808L57.0108 50.9097Z" fill="url(#paint2_linear_1_132)"/>
<path d="M57.0108 33.2385L26.2967 15.7778C24.4034 14.7259 22.9308 14.9363 21.8789 15.9882L48.1752 42.0741L57.0108 33.2385Z" fill="url(#paint3_linear_1_132)"/>
<path opacity="0.2" d="M56.8004 50.6993L26.2967 67.9496C24.6137 69.0015 23.1411 68.7911 22.0893 67.9496L21.8789 68.16L22.0893 68.3704C23.1411 69.2119 24.6137 69.4222 26.2967 68.3704L56.8004 50.6993Z" fill="black"/>
<path opacity="0.12" d="M21.8786 67.9497C21.2475 67.3185 21.0371 66.2667 21.0371 65.0045V65.2148C21.0371 66.4771 21.4579 67.5289 22.089 68.16V67.9497H21.8786ZM67.3186 44.8089L56.8001 50.6993L57.0104 50.9097L67.3186 45.0193C68.7912 44.1778 69.4223 43.1259 69.4223 42.0741C69.4223 43.1259 68.5808 43.9674 67.3186 44.8089Z" fill="black"/>
<path opacity="0.25" d="M26.2964 15.9882L67.3186 39.3393C68.5808 40.1808 69.4223 41.0222 69.4223 42.0741C69.4223 41.0222 68.7912 39.9704 67.3186 39.1289L26.2964 15.7778C23.3512 14.0948 21.0371 15.357 21.0371 18.723V18.9333C21.0371 15.7778 23.3512 14.3052 26.2964 15.9882Z" fill="white"/>
<defs>
<linearGradient id="paint0_linear_1_132" x1="45.8608" y1="18.3233" x2="10.5544" y2="53.6276" gradientUnits="userSpaceOnUse">
<stop stop-color="#00A0FF"/>
<stop offset="0.007" stop-color="#00A1FF"/>
<stop offset="0.26" stop-color="#00BEFF"/>
<stop offset="0.512" stop-color="#00D2FF"/>
<stop offset="0.76" stop-color="#00DFFF"/>
<stop offset="1" stop-color="#00E3FF"/>
</linearGradient>
<linearGradient id="paint1_linear_1_132" x1="71.1768" y1="42.0762" x2="20.2734" y2="42.0762" gradientUnits="userSpaceOnUse">
<stop stop-color="#FFE000"/>
<stop offset="0.409" stop-color="#FFBD00"/>
<stop offset="0.775" stop-color="#FFA500"/>
<stop offset="1" stop-color="#FF9C00"/>
</linearGradient>
<linearGradient id="paint2_linear_1_132" x1="52.229" y1="46.9042" x2="4.35296" y2="94.7803" gradientUnits="userSpaceOnUse">
<stop stop-color="#FF3A44"/>
<stop offset="1" stop-color="#C31162"/>
</linearGradient>
<linearGradient id="paint3_linear_1_132" x1="15.3511" y1="0.370258" x2="36.7311" y2="21.7502" gradientUnits="userSpaceOnUse">
<stop stop-color="#32A071"/>
<stop offset="0.069" stop-color="#2DA771"/>
<stop offset="0.476" stop-color="#15CF74"/>
<stop offset="0.801" stop-color="#06E775"/>
<stop offset="1" stop-color="#00F076"/>
</linearGradient>
</defs>
</svg>
