<svg width="24" height="24" viewBox="0 0 24 24" fill="none" xmlns="http://www.w3.org/2000/svg">
<g clip-path="url(#clip0_1_687)">
<path d="M12 24C5.38359 24 0 18.6164 0 12C0 5.38359 5.38359 0 12 0C18.6164 0 24 5.38359 24 12C24 18.6164 18.6164 24 12 24ZM12 1.99922C6.48516 1.99922 1.99922 6.48516 1.99922 12C1.99922 17.5148 6.48516 22.0008 12 22.0008C17.5148 22.0008 22.0008 17.5148 22.0008 12C22.0008 6.48516 17.5148 1.99922 12 1.99922Z" fill="#011627"/>
<path d="M16.0008 13.0008H7.99922C7.4461 13.0008 6.99844 12.5532 6.99844 12C6.99844 11.4469 7.4461 10.9993 7.99922 10.9993H15.9984C16.5516 10.9993 16.9992 11.4469 16.9992 12C16.9992 12.5532 16.5516 13.0008 16.0008 13.0008Z" fill="#C82625"/>
<path d="M12 16.9993C11.4469 16.9993 10.9992 16.5517 10.9992 15.9985V7.99932C10.9992 7.44619 11.4469 6.99854 12 6.99854C12.5531 6.99854 13.0008 7.44619 13.0008 7.99932V15.9985C13.0008 16.5517 12.5531 16.9993 12 16.9993Z" fill="#C82625"/>
</g>
<defs>
<clipPath id="clip0_1_687">
<rect width="24" height="24" fill="white"/>
</clipPath>
</defs>
</svg>
