<svg width="360" height="80" viewBox="0 0 360 80" fill="none" xmlns="http://www.w3.org/2000/svg">
<g filter="url(#filter0_d_1_504)">
<mask id="path-1-inside-1_1_504" fill="white">
<path fill-rule="evenodd" clip-rule="evenodd" d="M180 36C199.882 36 216 19.8823 216 0H360V56C360 69.2548 349.255 80 336 80H24C10.7452 80 0 69.2548 0 56V0H144C144 19.8823 160.118 36 180 36Z"/>
</mask>
<path fill-rule="evenodd" clip-rule="evenodd" d="M180 36C199.882 36 216 19.8823 216 0H360V56C360 69.2548 349.255 80 336 80H24C10.7452 80 0 69.2548 0 56V0H144C144 19.8823 160.118 36 180 36Z" fill="white"/>
<path d="M216 0V-1H215V0H216ZM360 0H361V-1H360V0ZM0 0V-1H-1V0H0ZM144 0H145V-1H144V0ZM215 0C215 19.33 199.33 35 180 35V37C200.435 37 217 20.4345 217 0H215ZM216 1H360V-1H216V1ZM359 0V56H361V0H359ZM359 56C359 68.7025 348.703 79 336 79V81C349.807 81 361 69.8071 361 56H359ZM336 79H24V81H336V79ZM24 79C11.2975 79 1 68.7025 1 56H-1C-1 69.8071 10.1929 81 24 81V79ZM1 56V0H-1V56H1ZM0 1H144V-1H0V1ZM180 35C160.67 35 145 19.33 145 0H143C143 20.4345 159.565 37 180 37V35Z" fill="#6C757D" fill-opacity="0.15" mask="url(#path-1-inside-1_1_504)"/>
</g>
<defs>
<filter id="filter0_d_1_504" x="-36" y="-40" width="432" height="152" filterUnits="userSpaceOnUse" color-interpolation-filters="sRGB">
<feFlood flood-opacity="0" result="BackgroundImageFix"/>
<feColorMatrix in="SourceAlpha" type="matrix" values="0 0 0 0 0 0 0 0 0 0 0 0 0 0 0 0 0 0 127 0" result="hardAlpha"/>
<feMorphology radius="12" operator="dilate" in="SourceAlpha" result="effect1_dropShadow_1_504"/>
<feOffset dy="-4"/>
<feGaussianBlur stdDeviation="12"/>
<feComposite in2="hardAlpha" operator="out"/>
<feColorMatrix type="matrix" values="0 0 0 0 0.423529 0 0 0 0 0.458824 0 0 0 0 0.490196 0 0 0 0.25 0"/>
<feBlend mode="normal" in2="BackgroundImageFix" result="effect1_dropShadow_1_504"/>
<feBlend mode="normal" in="SourceGraphic" in2="effect1_dropShadow_1_504" result="shape"/>
</filter>
</defs>
</svg>
