<svg width="20" height="20" viewBox="0 0 20 20" fill="none" xmlns="http://www.w3.org/2000/svg">
<path d="M10 15.8333C12.7583 15.8333 15 13.5917 15 10.8333V6.66667C15 3.90834 12.7583 1.66667 10 1.66667C7.24167 1.66667 5 3.90834 5 6.66667V10.8333C5 13.5917 7.24167 15.8333 10 15.8333Z" stroke="#6C757D" stroke-width="1.5" stroke-linecap="round" stroke-linejoin="round"/>
<path d="M2.5 9.16666V10.8333C2.5 12.8225 3.29018 14.7301 4.6967 16.1366C6.10322 17.5432 8.01088 18.3333 10 18.3333C11.9891 18.3333 13.8968 17.5432 15.3033 16.1366C16.7098 14.7301 17.5 12.8225 17.5 10.8333V9.16666M7.59167 6.23333C9.07143 5.69165 10.6952 5.69165 12.175 6.23333M8.35833 8.73333C9.35833 8.45833 10.4167 8.45833 11.4167 8.73333" stroke="#6C757D" stroke-width="1.5" stroke-linecap="round" stroke-linejoin="round"/>
</svg>
