<svg width="32" height="32" viewBox="0 0 32 32" fill="none" xmlns="http://www.w3.org/2000/svg">
<path fill-rule="evenodd" clip-rule="evenodd" d="M11.9998 1.6665C8.50198 1.6665 5.66644 4.50204 5.66644 7.99984C5.66644 11.4976 8.50198 14.3332 11.9998 14.3332C15.4976 14.3332 18.3331 11.4976 18.3331 7.99984C18.3331 4.50204 15.4976 1.6665 11.9998 1.6665ZM7.66644 7.99984C7.66644 5.6066 9.60654 3.6665 11.9998 3.6665C14.393 3.6665 16.3331 5.6066 16.3331 7.99984C16.3331 10.3931 14.393 12.3332 11.9998 12.3332C9.60654 12.3332 7.66644 10.3931 7.66644 7.99984Z" fill="#C82625"/>
<path d="M20 3C19.4477 3 19 3.44772 19 4C19 4.55228 19.4477 5 20 5C21.6568 5 23 6.34315 23 8C23 9.65685 21.6568 11 20 11C19.4477 11 19 11.4477 19 12C19 12.5523 19.4477 13 20 13C22.7615 13 25 10.7614 25 8C25 5.23857 22.7615 3 20 3Z" fill="#011627"/>
<path fill-rule="evenodd" clip-rule="evenodd" d="M4.90398 18.0274C6.7698 16.9612 9.28067 16.3335 11.9998 16.3335C14.7188 16.3335 17.2298 16.9612 19.0956 18.0274C20.9331 19.0774 22.3331 20.6803 22.3331 22.6668C22.3331 24.6534 20.9331 26.2563 19.0956 27.3063C17.2298 28.3724 14.7188 29.0002 11.9998 29.0002C9.28067 29.0002 6.7698 28.3724 4.90398 27.3063C3.06644 26.2563 1.66644 24.6534 1.66644 22.6668C1.66644 20.6803 3.06644 19.0774 4.90398 18.0274ZM5.89626 19.7639C4.35579 20.6442 3.66644 21.7078 3.66644 22.6668C3.66644 23.6259 4.35579 24.6895 5.89626 25.5698C7.40843 26.4339 9.56423 27.0002 11.9998 27.0002C14.4354 27.0002 16.5911 26.4339 18.1032 25.5698C19.6438 24.6895 20.3331 23.6259 20.3331 22.6668C20.3331 21.7078 19.6438 20.6442 18.1032 19.7639C16.5911 18.8998 14.4354 18.3335 11.9998 18.3335C9.56423 18.3335 7.40843 18.8998 5.89626 19.7639Z" fill="#C82625"/>
<path d="M24.2145 17.6899C23.675 17.5717 23.1417 17.913 23.0234 18.4525C22.9051 18.9919 23.2465 19.5253 23.7859 19.6435C24.8425 19.8753 25.6867 20.2731 26.2441 20.7291C26.8021 21.1857 27.0002 21.6317 27.0002 22.0001C27.0002 22.3343 26.8394 22.7267 26.3961 23.1386C25.9495 23.5534 25.2635 23.9366 24.3786 24.2031C23.8497 24.3623 23.5501 24.9201 23.7093 25.449C23.8686 25.9778 24.4263 26.2774 24.9551 26.1182C26.0519 25.7879 27.0326 25.2771 27.7573 24.6039C28.4851 23.9277 29.0002 23.0382 29.0002 22.0001C29.0002 20.847 28.3679 19.8827 27.5106 19.1813C26.6526 18.4791 25.4969 17.9711 24.2145 17.6899Z" fill="#011627"/>
</svg>
